<svg id="Layer_1" data-name="Layer 1" xmlns="http://www.w3.org/2000/svg" xmlns:xlink="http://www.w3.org/1999/xlink" viewBox="0 0 1366 768"><defs><style>.cls-1{fill:url(#linear-gradient);}.cls-2{fill:url(#linear-gradient-2);}.cls-3{fill:url(#linear-gradient-3);}.cls-4{fill:url(#linear-gradient-4);}.cls-5{fill:url(#linear-gradient-5);}.cls-6{fill:url(#linear-gradient-6);}.cls-7{fill:url(#linear-gradient-7);}.cls-8{fill:url(#linear-gradient-8);}.cls-9{fill:url(#linear-gradient-9);}.cls-10{fill:url(#linear-gradient-10);}.cls-11{fill:url(#linear-gradient-11);}.cls-12{fill:url(#linear-gradient-12);}.cls-13{fill:url(#linear-gradient-13);}.cls-14{fill:url(#linear-gradient-14);}.cls-15{fill:url(#linear-gradient-15);}.cls-16{fill:url(#linear-gradient-16);}.cls-17{fill:url(#linear-gradient-17);}.cls-18{fill:url(#linear-gradient-18);}.cls-19{fill:url(#linear-gradient-19);}.cls-20{fill:url(#linear-gradient-20);}.cls-21{fill:url(#linear-gradient-21);}.cls-22{fill:url(#linear-gradient-22);}.cls-23{fill:url(#linear-gradient-23);}.cls-24{fill:url(#linear-gradient-24);}.cls-25{fill:url(#linear-gradient-25);}.cls-26{fill:url(#linear-gradient-26);}.cls-27{fill:url(#linear-gradient-27);}.cls-28{fill:url(#linear-gradient-28);}.cls-29{fill:url(#linear-gradient-29);}.cls-30{fill:url(#linear-gradient-30);}.cls-31{fill:url(#linear-gradient-31);}.cls-32{fill:url(#linear-gradient-32);}</style><linearGradient id="linear-gradient" x1="724.03" y1="161.04" x2="701.91" y2="325" gradientUnits="userSpaceOnUse"><stop offset="0" stop-color="#39b54a"/><stop offset="0.4" stop-color="#38b349"/><stop offset="0.54" stop-color="#36ac46"/><stop offset="0.65" stop-color="#33a142"/><stop offset="0.73" stop-color="#2d903b"/><stop offset="0.8" stop-color="#267a32"/><stop offset="0.86" stop-color="#1e5e27"/><stop offset="0.92" stop-color="#143e19"/><stop offset="0.97" stop-color="#081a0b"/><stop offset="1"/></linearGradient><linearGradient id="linear-gradient-2" x1="692.74" y1="112.8" x2="692.74" y2="137.69" gradientTransform="matrix(1, -0.1, 0.1, 1, -12.33, 62.91)" gradientUnits="userSpaceOnUse"><stop offset="0" stop-color="#39b54a"/><stop offset="0.15" stop-color="#38b148"/><stop offset="0.3" stop-color="#34a543"/><stop offset="0.45" stop-color="#2e913b"/><stop offset="0.6" stop-color="#257530"/><stop offset="0.74" stop-color="#195121"/><stop offset="0.89" stop-color="#0c250f"/><stop offset="1"/></linearGradient><linearGradient id="linear-gradient-3" x1="676.35" y1="275.2" x2="694.87" y2="275.2" gradientTransform="translate(6.21 565.41) rotate(-45)" gradientUnits="userSpaceOnUse"><stop offset="0" stop-color="#39b54a"/><stop offset="0.18" stop-color="#38b249"/><stop offset="0.33" stop-color="#35a845"/><stop offset="0.47" stop-color="#2f973e"/><stop offset="0.6" stop-color="#287f34"/><stop offset="0.73" stop-color="#1e6027"/><stop offset="0.85" stop-color="#123917"/><stop offset="0.97" stop-color="#040d05"/><stop offset="1"/></linearGradient><linearGradient id="linear-gradient-4" x1="694.18" y1="275.2" x2="712.7" y2="275.2" gradientTransform="translate(10.37 575.44) rotate(-45)" xlink:href="#linear-gradient"/><linearGradient id="linear-gradient-5" x1="645.7" y1="503.95" x2="664.22" y2="503.95" gradientTransform="translate(-89.78 601.33) rotate(-45)" xlink:href="#linear-gradient-3"/><linearGradient id="linear-gradient-6" x1="663.52" y1="503.95" x2="682.04" y2="503.95" gradientTransform="translate(-89.78 621.4) rotate(-45)" xlink:href="#linear-gradient"/><linearGradient id="linear-gradient-7" x1="673.45" y1="538.17" x2="691.97" y2="538.17" gradientTransform="translate(-202.08 566.63) rotate(-45)" xlink:href="#linear-gradient-3"/><linearGradient id="linear-gradient-8" x1="691.28" y1="538.17" x2="709.8" y2="538.17" gradientTransform="translate(-202.08 566.63) rotate(-45)" xlink:href="#linear-gradient"/><linearGradient id="linear-gradient-9" x1="706.43" y1="311.34" x2="711.41" y2="361.78" xlink:href="#linear-gradient"/><linearGradient id="linear-gradient-10" x1="695.56" y1="356.5" x2="695.56" y2="420.92" gradientUnits="userSpaceOnUse"><stop offset="0" stop-color="#39b54a"/><stop offset="0.36" stop-color="#38b349"/><stop offset="0.51" stop-color="#36ac46"/><stop offset="0.61" stop-color="#32a041"/><stop offset="0.7" stop-color="#2d8e3a"/><stop offset="0.78" stop-color="#267731"/><stop offset="0.85" stop-color="#1d5b25"/><stop offset="0.92" stop-color="#123917"/><stop offset="0.97" stop-color="#061408"/><stop offset="1"/></linearGradient><linearGradient id="linear-gradient-11" x1="670.54" y1="333.72" x2="694.06" y2="472.69" gradientUnits="userSpaceOnUse"><stop offset="0"/><stop offset="0.01" stop-color="#061408"/><stop offset="0.04" stop-color="#123a18"/><stop offset="0.08" stop-color="#1d5b25"/><stop offset="0.11" stop-color="#267731"/><stop offset="0.16" stop-color="#2d8e3a"/><stop offset="0.2" stop-color="#32a041"/><stop offset="0.26" stop-color="#36ac46"/><stop offset="0.34" stop-color="#38b349"/><stop offset="0.53" stop-color="#39b54a"/><stop offset="0.72" stop-color="#38b349"/><stop offset="0.78" stop-color="#36ac46"/><stop offset="0.83" stop-color="#33a142"/><stop offset="0.87" stop-color="#2d903b"/><stop offset="0.91" stop-color="#267a32"/><stop offset="0.94" stop-color="#1e5e27"/><stop offset="0.96" stop-color="#143e19"/><stop offset="0.99" stop-color="#081a0b"/><stop offset="1"/></linearGradient><linearGradient id="linear-gradient-12" x1="703.93" y1="449.68" x2="703.93" y2="577.19" xlink:href="#linear-gradient"/><linearGradient id="linear-gradient-13" x1="565.89" y1="468.54" x2="632.57" y2="468.54" gradientUnits="userSpaceOnUse"><stop offset="0" stop-color="#ffe247"/><stop offset="0.21" stop-color="#edcd3f"/><stop offset="0.65" stop-color="#c0982a"/><stop offset="1" stop-color="#996918"/></linearGradient><linearGradient id="linear-gradient-14" x1="615.74" y1="433.05" x2="639.36" y2="456.05" gradientUnits="userSpaceOnUse"><stop offset="0" stop-color="#ffe247"/><stop offset="0.15" stop-color="#f7d943"/><stop offset="0.39" stop-color="#e2c03a"/><stop offset="0.7" stop-color="#c0982a"/><stop offset="1" stop-color="#996918"/></linearGradient><linearGradient id="linear-gradient-15" x1="595.17" y1="410.23" x2="621.56" y2="428.73" gradientUnits="userSpaceOnUse"><stop offset="0" stop-color="#ffe247"/><stop offset="0.33" stop-color="#d9b536"/><stop offset="0.78" stop-color="#ab7e20"/><stop offset="1" stop-color="#996918"/></linearGradient><linearGradient id="linear-gradient-16" x1="581.59" y1="264.5" x2="581.59" y2="297.85" gradientUnits="userSpaceOnUse"><stop offset="0" stop-color="#ffe247"/><stop offset="0.19" stop-color="#fcde45"/><stop offset="0.37" stop-color="#f2d241"/><stop offset="0.55" stop-color="#e1bf39"/><stop offset="0.73" stop-color="#caa32f"/><stop offset="0.9" stop-color="#ac8021"/><stop offset="1" stop-color="#996918"/></linearGradient><linearGradient id="linear-gradient-17" x1="610.48" y1="230.51" x2="610.48" y2="261" gradientUnits="userSpaceOnUse"><stop offset="0" stop-color="#ffe247"/><stop offset="0.18" stop-color="#fcde45"/><stop offset="0.36" stop-color="#f1d241"/><stop offset="0.55" stop-color="#e0bd39"/><stop offset="0.73" stop-color="#c8a12e"/><stop offset="0.92" stop-color="#a97c1f"/><stop offset="1" stop-color="#996918"/></linearGradient><linearGradient id="linear-gradient-18" x1="648.25" y1="200.71" x2="621.03" y2="227.93" xlink:href="#linear-gradient-17"/><linearGradient id="linear-gradient-19" x1="562.26" y1="297.26" x2="573.28" y2="341.34" gradientUnits="userSpaceOnUse"><stop offset="0.01" stop-color="#ffe247"/><stop offset="0.17" stop-color="#fbdd45"/><stop offset="0.36" stop-color="#f0d040"/><stop offset="0.55" stop-color="#ddba37"/><stop offset="0.75" stop-color="#c39b2b"/><stop offset="0.95" stop-color="#a1731c"/><stop offset="1" stop-color="#996918"/></linearGradient><linearGradient id="linear-gradient-20" x1="590.85" y1="354.16" x2="578.58" y2="385.53" gradientUnits="userSpaceOnUse"><stop offset="0" stop-color="#ffe247"/><stop offset="0.2" stop-color="#e7c53c"/><stop offset="0.68" stop-color="#af8322"/><stop offset="0.91" stop-color="#996918"/></linearGradient><linearGradient id="linear-gradient-21" x1="607.13" y1="308.25" x2="584.93" y2="349.29" gradientUnits="userSpaceOnUse"><stop offset="0" stop-color="#ffe247"/><stop offset="0.22" stop-color="#eccc3e"/><stop offset="0.69" stop-color="#bc9228"/><stop offset="1" stop-color="#996918"/></linearGradient><linearGradient id="linear-gradient-22" x1="626.61" y1="277.6" x2="600.49" y2="303.73" gradientUnits="userSpaceOnUse"><stop offset="0.1" stop-color="#ffe247"/><stop offset="0.26" stop-color="#fcde45"/><stop offset="0.42" stop-color="#f1d241"/><stop offset="0.59" stop-color="#e0bd39"/><stop offset="0.76" stop-color="#c8a12e"/><stop offset="0.92" stop-color="#a97c1f"/><stop offset="1" stop-color="#996918"/></linearGradient><linearGradient id="linear-gradient-23" x1="539.25" y1="430.38" x2="591.53" y2="430.38" gradientUnits="userSpaceOnUse"><stop offset="0" stop-color="#996918"/><stop offset="0.06" stop-color="#b18623"/><stop offset="0.14" stop-color="#cda730"/><stop offset="0.22" stop-color="#e3c13a"/><stop offset="0.3" stop-color="#f3d341"/><stop offset="0.39" stop-color="#fcde46"/><stop offset="0.48" stop-color="#ffe247"/><stop offset="0.58" stop-color="#fcde45"/><stop offset="0.67" stop-color="#f1d241"/><stop offset="0.77" stop-color="#e0bd39"/><stop offset="0.86" stop-color="#c8a12e"/><stop offset="0.96" stop-color="#a97c1f"/><stop offset="1" stop-color="#996918"/></linearGradient><linearGradient id="linear-gradient-24" x1="592.87" y1="382.01" x2="584.92" y2="408.86" gradientUnits="userSpaceOnUse"><stop offset="0" stop-color="#ffe247"/><stop offset="0.15" stop-color="#fadc44"/><stop offset="0.35" stop-color="#eac93d"/><stop offset="0.59" stop-color="#d1ac32"/><stop offset="0.86" stop-color="#af8322"/><stop offset="1" stop-color="#996918"/></linearGradient><linearGradient id="linear-gradient-25" x1="656.68" y1="241.34" x2="617.03" y2="280.99" gradientUnits="userSpaceOnUse"><stop offset="0.01" stop-color="#ffe247"/><stop offset="0.34" stop-color="#fde046"/><stop offset="0.51" stop-color="#f7d843"/><stop offset="0.64" stop-color="#eccb3e"/><stop offset="0.75" stop-color="#dcb837"/><stop offset="0.85" stop-color="#c8a02d"/><stop offset="0.94" stop-color="#af8322"/><stop offset="1" stop-color="#996918"/></linearGradient><linearGradient id="linear-gradient-26" x1="671.3" y1="238.43" x2="622.76" y2="238.43" xlink:href="#linear-gradient-17"/><linearGradient id="linear-gradient-27" x1="704.18" y1="195.79" x2="683.12" y2="216.85" gradientUnits="userSpaceOnUse"><stop offset="0.28" stop-color="#ffe247"/><stop offset="0.41" stop-color="#fcde45"/><stop offset="0.54" stop-color="#f1d241"/><stop offset="0.67" stop-color="#e0bd39"/><stop offset="0.81" stop-color="#c8a12e"/><stop offset="0.94" stop-color="#a97c1f"/><stop offset="1" stop-color="#996918"/></linearGradient><linearGradient id="linear-gradient-28" x1="548.2" y1="432.14" x2="569.44" y2="449.52" xlink:href="#linear-gradient-17"/><linearGradient id="linear-gradient-29" x1="552.07" y1="386.49" x2="579.74" y2="407.29" xlink:href="#linear-gradient-17"/><linearGradient id="linear-gradient-30" x1="559.65" y1="352.4" x2="573.51" y2="379.02" gradientUnits="userSpaceOnUse"><stop offset="0" stop-color="#ffe247"/><stop offset="0.43" stop-color="#d5b034"/><stop offset="1" stop-color="#996918"/></linearGradient><linearGradient id="linear-gradient-31" x1="653.62" y1="201.35" x2="644.23" y2="210.75" xlink:href="#linear-gradient-17"/><linearGradient id="linear-gradient-32" x1="614.75" y1="90.13" x2="667.95" y2="453.21" gradientUnits="userSpaceOnUse"><stop offset="0" stop-color="#996918"/><stop offset="0.02" stop-color="#9e6f1a"/><stop offset="0.17" stop-color="#c8a12e"/><stop offset="0.3" stop-color="#e6c43b"/><stop offset="0.41" stop-color="#f8da44"/><stop offset="0.47" stop-color="#ffe247"/><stop offset="0.57" stop-color="#f2d341"/><stop offset="0.75" stop-color="#d1ab32"/><stop offset="0.99" stop-color="#9b6c19"/><stop offset="1" stop-color="#996918"/></linearGradient></defs><path class="cls-1" d="M711.06,98.58a71.06,71.06,0,0,0-3.22,13.69c-.31,2.29-.56,4.59-.77,6.9l-.59,7c-.1,1.18-.18,2.37-.31,3.56s-.24,2.26-.23,3.32l-.05,1.61,0,1.7c0,1.13,0,2.26,0,3.38,0,4.49.25,8.92.71,13.29a113.66,113.66,0,0,0,2,12.88c.45,2.11,1,4.22,1.54,6.26.28,1,.56,2,.9,3.08l1,3.28a92.44,92.44,0,0,0,4.4,11.84c.42.9.83,1.74,1.36,2.75s1,2,1.53,3c1,1.91,2.07,3.84,3.2,5.79,2.22,3.9,4.65,7.93,7,12.17a144,144,0,0,1,6.77,13.56l.73,1.83c.25.6.49,1.2.74,1.9l.73,2c.26.68.38,1.29.57,1.93.34,1.27.71,2.59,1,3.82l.86,3.68a130.22,130.22,0,0,1,2.3,15,104.71,104.71,0,0,1-1.61,30.26c-.53,2.46-1.06,4.91-1.81,7.31-.34,1.2-.68,2.4-1.1,3.58s-.78,2.37-1.23,3.51l-1.36,3.43c-.44,1.1-.94,2.26-1.44,3.37l-3,6.44-.12.37c-1.26,2.09-2.59,4.15-3.91,6.21s-2.69,4.11-4.13,6.13c.34-2.45.78-4.87,1.23-7.29s.93-4.81,1.45-7.2l-.12.38c.18-2.47.52-4.9.79-7.21l.71-6.91c.14-2.29.38-4.52.41-6.78,0-1.12.09-2.24.07-3.36s0-2.23,0-3.34a125.75,125.75,0,0,0-.93-13.22,117.48,117.48,0,0,0-2.2-13q-1.44-6.4-3.38-12.71l-1-3.14c-.33-1-.69-2-1-3-.17-.47-.31-1-.51-1.43l-.57-1.28c-.17-.4-.4-.89-.63-1.36l-.66-1.43c-1.85-3.8-4-7.61-6.27-11.54s-4.72-8-7.1-12.34c-1.18-2.17-2.35-4.39-3.47-6.69-.56-1.15-1-2.25-1.56-3.38s-1.1-2.4-1.6-3.67a92.41,92.41,0,0,1-4.43-15L692,180c-.26-1.19-.46-2.52-.69-3.81s-.37-2.56-.55-3.84-.29-2.55-.39-3.83-.21-2.56-.24-3.84-.08-2.56-.09-3.84c0-2.56,0-5.1.23-7.64a106.16,106.16,0,0,1,2.14-15c.28-1.21.53-2.43.85-3.64l.48-1.8.52-1.88c.34-1.27.78-2.43,1.19-3.6s.83-2.22,1.24-3.35a113.74,113.74,0,0,1,5.75-13.47A46,46,0,0,1,711.06,98.58Z"/><path class="cls-2" d="M685.48,103.94a3.48,3.48,0,0,0,.14,1,4.16,4.16,0,0,0,.37.9,4.75,4.75,0,0,0,.57.86,6.64,6.64,0,0,0,.74.76,7.73,7.73,0,0,0,.8.64c.28.19.55.37.81.53a3.13,3.13,0,0,0,.34.21l0,0a3.38,3.38,0,0,1-.27.26l-.31.29c-.2.18-.41.37-.63.55-.44.37-.91.74-1.38,1.14a18.6,18.6,0,0,0-1.37,1.31l-.16.18-.16.2-.16.2a2.43,2.43,0,0,0-.14.2l-.25.4-.22.39a10.86,10.86,0,0,0-.74,1.63,9.28,9.28,0,0,0-.56,3.5,6.84,6.84,0,0,0,.08.9c0,.15,0,.29.07.44a3.58,3.58,0,0,0,.09.45l.11.43c0,.14.08.29.13.44l.27.83v.05l.42.84c.15.29.3.57.46.85,0-.3,0-.59,0-.88s0-.58,0-.87v0c0-.29,0-.58.07-.85l.08-.81c0-.27.06-.53.12-.79s0-.26.07-.38l.09-.38a10.69,10.69,0,0,1,.49-1.48,10,10,0,0,1,.67-1.4,13.44,13.44,0,0,1,.84-1.33l.23-.32.24-.3a.83.83,0,0,1,.11-.15l.12-.12.13-.14.14-.14a15.06,15.06,0,0,1,1.24-1.09c.45-.38.92-.75,1.39-1.16.23-.21.47-.42.7-.65l.12-.12.2-.21c.1-.11.23-.23.33-.36a8.69,8.69,0,0,0,1.07-1.56l.2-.38.06-.11a2.75,2.75,0,0,0,.14-.3c.07-.14.13-.28.19-.42l.16-.42c0-.14.1-.28.14-.43s.07-.29.11-.43.13-.59.17-.88a9.61,9.61,0,0,0,.07-1.78c0-.15,0-.3,0-.44l0-.23,0-.23c0-.15-.06-.3-.08-.45s-.07-.28-.1-.42a11.78,11.78,0,0,0-.51-1.74,5.5,5.5,0,0,0-.9-1.57l0-.06h0a7.78,7.78,0,0,0-2,.2l-.14,0a7.29,7.29,0,0,0-1.8.72,6.93,6.93,0,0,0-1.56,1.21c-.11.12-.21.25-.31.37l-.28.39c-.09.13-.17.27-.25.4l-.2.43,0-.08A3.47,3.47,0,0,0,685.48,103.94Zm3.1-.77,0-.08.07-.33c0-.11.07-.22.1-.33l.11-.33.15-.32a5.69,5.69,0,0,1,.8-1.22A6.21,6.21,0,0,1,691,99.48a8.6,8.6,0,0,1,1.44-.82,6.48,6.48,0,0,1,.1,1.57q0,.4-.06.81l-.1.82c0,.13,0,.27,0,.41a2.3,2.3,0,0,1-.05.39l0,.19,0,.19c0,.13-.05.26-.08.39a12.83,12.83,0,0,1-.46,1.49,11.65,11.65,0,0,1-.64,1.39l-.18.32-.06,0-.63-.4c-.19-.13-.37-.27-.52-.39a3.33,3.33,0,0,1-.75-.81,2.33,2.33,0,0,1-.39-.86A2.29,2.29,0,0,1,688.58,103.17Z"/><rect class="cls-3" x="679.06" y="268.66" width="13.1" height="13.1" transform="translate(395.41 -404.19) rotate(45)"/><rect class="cls-4" x="693.25" y="268.66" width="13.1" height="13.1" transform="translate(399.56 -414.23) rotate(45)"/><rect class="cls-5" x="723.14" y="488" width="13.1" height="13.1" transform="translate(1224.24 -235.14) rotate(90)"/><rect class="cls-6" x="733.17" y="498.04" width="13.1" height="13.1" transform="translate(1244.31 -235.14) rotate(90)"/><rect class="cls-7" x="654.67" y="457.88" width="13.1" height="13.1"/><rect class="cls-8" x="664.7" y="447.85" width="13.1" height="13.1"/><path class="cls-9" d="M731.16,329.45l0-.67-.37,3.34-.6,3.3c-.26,1.08-.55,2.16-.85,3.22s-.69,2.09-1,3.13a44,44,0,0,1-6.38,11.34,37.59,37.59,0,0,1-3.46,3.87,38.52,38.52,0,0,1-5.85,4.72,32.06,32.06,0,0,1-9,4.11,2.43,2.43,0,0,0-.24-.32c-.17-.21-.34-.41-.52-.6a47,47,0,0,0,6-7.13,43.43,43.43,0,0,0,4.21-7.76c.23-.56.45-1.11.66-1.67a44.32,44.32,0,0,0,2.42-9.82l.25-2.46c0-.83.05-1.65.1-2.45l0-2.43-.17-2.39,0-.68a20,20,0,0,0-1.32-6.28,20.37,20.37,0,0,0-3.22-5.44,16.72,16.72,0,0,0-4.56-3.8A11.26,11.26,0,0,0,706,312c-.16-.09-.59-.26-.9-.4l-1-.43c-1.38-.6-2.88-1.21-4.38-1.89s-3.11-1.45-4.72-2.31a53,53,0,0,1-4.87-3c-1.15-.86-2.3-1.77-3.4-2.77-.42-.39-.83-.78-1.23-1.19a33.92,33.92,0,0,1-3.91-4.82c-.25-.37-.49-.75-.72-1.13a39.58,39.58,0,0,1,6.87-5.85,33.12,33.12,0,0,1,7.18-3.67c.18.25.36.48.55.71s.42.52.64.76a20.11,20.11,0,0,0,4.1,3.44c1,.62,2,1.21,3.12,1.79s2.38,1.17,3.7,1.76l4.17,1.83,1.13.5c.4.19.69.29,1.23.58,1,.51,2,1,2.85,1.57a31.69,31.69,0,0,1,9.18,8.67,33.75,33.75,0,0,1,5.07,11.19A32,32,0,0,1,731.16,329.45Z"/><path class="cls-10" d="M722.8,378.94l0-.69-.37,3.44-.59,3.39c-.26,1.12-.56,2.22-.85,3.32s-.7,2.15-1.07,3.22a44.78,44.78,0,0,1-6.37,11.68,39.13,39.13,0,0,1-9.3,8.84l-.08.06A31.05,31.05,0,0,1,693,416.9a51.23,51.23,0,0,0,7.47-8.81v0a45.83,45.83,0,0,0,4.87-9.69,47.59,47.59,0,0,0,2.42-10.12l.24-2.53c.05-.85.05-1.7.1-2.52l0-2.5-.18-2.46,0-.7a22,22,0,0,0-1.32-6.46,20.4,20.4,0,0,0-3-5.28,2.43,2.43,0,0,0-.24-.32c-.17-.21-.34-.41-.52-.6a16.77,16.77,0,0,0-4-3.3,11.55,11.55,0,0,0-1.25-.66c-.15-.09-.59-.27-.9-.41l-1-.44c-1.39-.61-2.88-1.25-4.39-1.95s-3.11-1.5-4.71-2.38a47.81,47.81,0,0,1-4.87-3.11c-.69-.54-1.38-1.09-2.06-1.67a29,29,0,0,1-2.57-2.41l-.88-1a32,32,0,0,1-3-4,33.3,33.3,0,0,1-3-5.62,30,30,0,0,1-1.8-6.36,32.33,32.33,0,0,1,.4-12.4l-.06.59.55-3.26c.25-1.07.47-2.13.77-3.18s.63-2.08,1-3.1.76-2,1.17-3a47.37,47.37,0,0,1,6.49-10.83c.68-.84,1.39-1.65,2.12-2.43a39.58,39.58,0,0,1,6.87-5.85,33.12,33.12,0,0,1,7.18-3.67c.18.25.36.48.55.71s.42.52.64.76a51.34,51.34,0,0,0-4.71,6.13,48.35,48.35,0,0,0-4.67,9.06l-.11.26a48.28,48.28,0,0,0-2.64,9.71l-.36,2.43-.2,2.43c0,.81-.06,1.61-.1,2.41l0,2.38-.07.59a20.28,20.28,0,0,0,.83,6.7,17.06,17.06,0,0,0,3,5.34,20.3,20.3,0,0,0,4.74,4.33c1,.64,2,1.24,3.13,1.84s2.38,1.2,3.7,1.8l4.16,1.89,1.13.51c.4.19.69.31,1.23.6A31.77,31.77,0,0,1,708,346a32.54,32.54,0,0,1,5.08,4,31.2,31.2,0,0,1,4.1,4.88c.47.69.91,1.39,1.31,2.1a35.25,35.25,0,0,1,3.77,9.41A34.38,34.38,0,0,1,722.8,378.94Z"/><path class="cls-11" d="M679.66,351c-.24.33-.47.67-.69,1A48.6,48.6,0,0,0,674.2,361a46.52,46.52,0,0,0-2.64,9.44l-.35,2.36-.21,2.36c0,.79,0,1.57-.1,2.33l0,2.32-.07.57a18.89,18.89,0,0,0,.84,6.51,16.13,16.13,0,0,0,3,5.2,20.22,20.22,0,0,0,4.74,4.2c1,.62,2,1.22,3.13,1.8s2.38,1.16,3.7,1.74l4.17,1.84,1.12.5c.4.19.69.29,1.23.58a31.36,31.36,0,0,1,2.85,1.57,31.79,31.79,0,0,1,4.87,3.74,29.94,29.94,0,0,1,3.7,4.11c.21.26.42.55.61.83a33.65,33.65,0,0,1,5.08,11.18,32,32,0,0,1,.54,12.19l0-.68-.38,3.35-.59,3.3c-.26,1.08-.56,2.15-.85,3.22s-.7,2.1-1.06,3.13a43.33,43.33,0,0,1-6.38,11.35,38.6,38.6,0,0,1-9,8.4l-.28.19a31.34,31.34,0,0,1-11.25,4.62,49.52,49.52,0,0,0,7.48-8.57,44.4,44.4,0,0,0,4.87-9.42,45.43,45.43,0,0,0,2.37-9.45l0-.38.24-2.46c.05-.83.05-1.65.1-2.46v-2.42l-.19-2.4,0-.67a20.6,20.6,0,0,0-1.32-6.28,20.14,20.14,0,0,0-3.23-5.44,16.68,16.68,0,0,0-4.56-3.79,13.52,13.52,0,0,0-1.25-.65,8.14,8.14,0,0,0-.9-.38l-1-.44c-1.39-.6-2.88-1.22-4.39-1.89s-3.11-1.45-4.71-2.31a50.43,50.43,0,0,1-4.87-3,36.47,36.47,0,0,1-4.63-4,32.2,32.2,0,0,1-3.91-4.82,30.19,30.19,0,0,1-3-5.47,28.42,28.42,0,0,1-1.81-6.17,30.54,30.54,0,0,1,.4-12.05l-.06.57.55-3.17c.25-1,.48-2.07.77-3.09s.64-2,1-3,.76-1.95,1.16-2.92a45.84,45.84,0,0,1,6.49-10.53,40.06,40.06,0,0,1,9-8l.89-.56"/><path class="cls-12" d="M731.16,533.62l0-.68-.37,3.36-.6,3.29c-.26,1.08-.55,2.15-.85,3.22s-.69,2.1-1,3.14a44.3,44.3,0,0,1-6.38,11.34,38.87,38.87,0,0,1-9.31,8.59c-.5.32-1,.63-1.52.92a32,32,0,0,1-3,1.54c-.56-1-1.15-2-1.78-3.08.89-1.09,1.73-2.2,2.49-3.33a.35.35,0,0,0,0-.08,43.61,43.61,0,0,0,4.82-9.34,44.54,44.54,0,0,0,2.42-9.83l.25-2.47c0-.82.05-1.63.1-2.45l0-2.42-.17-2.4,0-.67A20.08,20.08,0,0,0,715,526a20.47,20.47,0,0,0-3.22-5.43,16.5,16.5,0,0,0-4.56-3.79,13.52,13.52,0,0,0-1.25-.65c-.16-.09-.59-.25-.9-.38l-1-.44c-1.38-.59-2.88-1.22-4.38-1.9s-3.11-1.45-4.72-2.3a51.06,51.06,0,0,1-4.87-3,37.08,37.08,0,0,1-4.63-4,32.32,32.32,0,0,1-3.91-4.82,31.84,31.84,0,0,1-3-5.47,29,29,0,0,1-1.81-6.17,30.79,30.79,0,0,1,.4-12.06l0,.58.55-3.16c.24-1.05.48-2.08.76-3.1s.65-2,1-3,.75-2,1.16-2.92a45.16,45.16,0,0,1,6.49-10.53,39.68,39.68,0,0,1,8.3-7.58c.22-.16.46-.31.68-.46a32.26,32.26,0,0,1,10.7-4.55,53.66,53.66,0,0,0-7,8.36,48.09,48.09,0,0,0-4.77,9.07,46.29,46.29,0,0,0-2.65,9.43l-.35,2.36-.21,2.36c0,.79-.05,1.56-.09,2.33l0,2.32-.07.58a18.59,18.59,0,0,0,.84,6.5,16.17,16.17,0,0,0,3,5.21,19.8,19.8,0,0,0,4.74,4.19c1,.62,2,1.22,3.12,1.8s2.38,1.16,3.7,1.74l4.17,1.83,1.13.51c.4.18.69.3,1.23.58,1,.51,2,1,2.85,1.57a31.59,31.59,0,0,1,9.18,8.68,33.47,33.47,0,0,1,5.07,11.17A32.1,32.1,0,0,1,731.16,533.62Z"/><path class="cls-13" d="M582.08,469.34a51.16,51.16,0,0,1-4.23-4.65l2.39-.09a81.76,81.76,0,0,1-9.29-5.09A110.42,110.42,0,0,1,583.41,464c.47.19.94.38,1.38.6,3.4,0,7.62.05,12,.4a48.15,48.15,0,0,1,13.92,2.93,21.85,21.85,0,0,1,5.66,3.45,24.47,24.47,0,0,1,4.57,5.68c-2.93,4.38-7.85,6.06-12.91,5.83a27,27,0,0,1-8.9-2,5.68,5.68,0,0,1-.69.09,28.29,28.29,0,0,1-11.35-1.72,82.47,82.47,0,0,1-10.38-4.68l-4.21-2.14s1.79.36,4.56,1.25,6.5,2.35,10.63,3.77a48.74,48.74,0,0,0,8.85,2.35c-1.13-.54-2.24-1.14-3.3-1.78a58.94,58.94,0,0,1-6.65-4.62c-1-.39-2-.81-3-1.25a137,137,0,0,1-21-12.14l-8.3-5.73s3.38,1.79,8.75,4.89C567.91,461.9,574.48,465.82,582.08,469.34Z"/><path class="cls-14" d="M628.42,472.32s-.21-.6-.61-1.62a10.41,10.41,0,0,1-4.86-1.55,14.15,14.15,0,0,1-4.48-4.71c-2.32-3.75-3.38-8.64-3.7-13.36a68.2,68.2,0,0,1-3-12.93A43.44,43.44,0,0,1,612,425.8a30.56,30.56,0,0,1,1.25-5s-.31,1.94-.43,5.07a79.22,79.22,0,0,0,.63,11.95c.39,3.15.82,6.12,1.22,8.64a60.93,60.93,0,0,1,.89-8.69c.33-1.73.63-3.15.88-4.1a.62.62,0,0,0,0-.12,57,57,0,0,1,1.39-15.49,65.39,65.39,0,0,1,3-9.51,85,85,0,0,0-2.16,9.63,62.76,62.76,0,0,0-.62,15.43l1.76,2.31c.8,1.12,1.72,2.41,2.67,3.84,0-.14-.06-.24-.08-.39a66.33,66.33,0,0,1-1.09-13.78,44.78,44.78,0,0,1,.61-5.78s0,2.21.22,5.7,1,8.18,1.91,13.37c.28,1.59.53,3.12.77,4.62.34.53.65,1.08,1,1.66A40,40,0,0,1,630.4,457a25,25,0,0,1-1.15,13.72c-.42,0-.84,0-1.28,0C628.28,471.71,628.42,472.32,628.42,472.32Z"/><path class="cls-15" d="M601.79,445.67a24.4,24.4,0,0,1-1.2-2.73,13.56,13.56,0,0,1-6.6-8.46,29.07,29.07,0,0,1-.71-11.4,50.56,50.56,0,0,1,0-9.32A58.15,58.15,0,0,1,596,401.64s-.31,5.53-1,12.19l-.24,2.19a47.44,47.44,0,0,1,3.12-7.95c.13-.2.2-.36.32-.57a67.78,67.78,0,0,1,3-12.95,29.56,29.56,0,0,1,4-8.08,33.82,33.82,0,0,0-3.22,8.32,76.41,76.41,0,0,0-1.83,9.33l.56-.84s.17.41.44,1.13.7,1.74,1.16,3c.34.93.72,2,1.09,3.16a50.41,50.41,0,0,1,3.16-12s-1,6.26-1.69,13.82c-.08.71-.17,1.38-.21,2,.31,1,.59,2.09.9,3.16a46.45,46.45,0,0,1,1.7,13.06,21.06,21.06,0,0,1-4.76,13.06,10.24,10.24,0,0,1-1.53-.55A24.91,24.91,0,0,0,601.79,445.67Z"/><path class="cls-16" d="M587.63,278a37.92,37.92,0,0,1-.4,7.3,19,19,0,0,1-1.9,6.52,20.65,20.65,0,0,1-1.82,2.84,15.49,15.49,0,0,1-2,2.12c.35,1.84.62,2.87.59,2.87s-.33-.93-.82-2.65c-.09.08-.13.14-.22.22a15.08,15.08,0,0,1-7.62-11.3,34.08,34.08,0,0,1-.33-7.82,50.34,50.34,0,0,1,1.5-8.08c.36-1.36.74-2.68,1.17-4,.26-.76.56-1.46.85-2.19A110.56,110.56,0,0,1,580,246.41s-.4,5.18-1.14,12.34c.42-.88.85-1.73,1.23-2.5.09-.19.23-.39.33-.58a89.25,89.25,0,0,1,4.89-16.8,65.11,65.11,0,0,1,4.8-9.52,82.25,82.25,0,0,0-4,9.82,105,105,0,0,0-3.37,12.64c.45-.71.75-1.13.75-1.13s.57,2.41,1.29,6c0,.17.05.39.08.58a66.93,66.93,0,0,1,3.89-13.88s-1.45,7.33-2.56,16.28q-.21,1.57-.33,3.09a.7.7,0,0,0,.06.23c.4,2.32.8,4.82,1.08,7.34S587.54,275.49,587.63,278Z"/><path class="cls-17" d="M605.22,259a17.81,17.81,0,0,1-5.34,4.06,15.25,15.25,0,0,1-3.79-6,18.8,18.8,0,0,1-.82-7.1,27.66,27.66,0,0,1,.52-3.83,24.24,24.24,0,0,1,1-3.85,57.67,57.67,0,0,1,3.24-7.45,69.92,69.92,0,0,1,5-7.68,103.92,103.92,0,0,1,6.63-14.38L608,223.45l.32-.38c1.3-1.45,2.38-2.61,3.14-3.39s1.13-1.06,1.23-1.15a97.28,97.28,0,0,1,7.35-13.07,80.29,80.29,0,0,1,5.67-7.48s-2.08,2.93-5,8a138.42,138.42,0,0,0-8,16.52c0,.7-.05,1.45-.06,2.26,0,1.23-.1,2.61-.16,4,.36-.91.75-1.85,1.14-2.79a43.06,43.06,0,0,1,6.06-9.92,27.28,27.28,0,0,1,3.29-3.37s-1.12,1.46-2.66,3.93a87.7,87.7,0,0,0-5.19,10.11c-1.07,2.41-2,4.67-2.95,6.71-.12,1.68-.27,3.4-.43,5.16-.27,2.59-.69,5.08-1.18,7.58a37,37,0,0,1-2,7c-.48,1.06-.92,2.11-1.46,3.06A16,16,0,0,1,605.22,259Z"/><path class="cls-18" d="M646.76,196.7c-.22,1.05-.52,2.43-.89,4.06-.42,1.84-1,4-1.55,6.26-.28,1.13-.63,2.3-1,3.47s-.69,2.43-1.1,3.66c-1.58,4.79-3.47,9.7-6.08,13.45a17.57,17.57,0,0,1-4.48,4.78,13.42,13.42,0,0,1-6,2.57c-2.66-4.34-2.91-9.18-1.57-14a32.92,32.92,0,0,1,3.07-7,47.64,47.64,0,0,1,4-5.69,39.67,39.67,0,0,1,1.52-3.7,43,43,0,0,1,6.07-9.67,30.85,30.85,0,0,1,3.2-3.28,81.83,81.83,0,0,0-7.44,12.93c.84-.84,1.68-1.63,2.49-2.38a56.84,56.84,0,0,1,5-4,38.42,38.42,0,0,1,3.46-2.38,73.9,73.9,0,0,1,9.65-9.16c4-3.2,6.66-4.9,6.65-4.92s-2.41,2.11-6.16,5.65A99.64,99.64,0,0,0,646.76,196.7Z"/><path class="cls-19" d="M558,311c0-.07,0-.14,0-.2a37.87,37.87,0,0,1,.27-4c.17-1.33.33-2.6.53-3.86s.37-2.22.57-3.27a127.84,127.84,0,0,1,1.31-25.88,96.28,96.28,0,0,1,2.35-11.2,157.5,157.5,0,0,0-2.22,31.35c.76-2.49,1.31-4,1.31-4s.41.74,1,2a54,54,0,0,1,1.86-12s-.56,7-.2,15.47c1.47,3.32,3.63,7.81,5.42,12.49.42,1.15.86,2.34,1.23,3.53s.72,2.42,1.11,3.61a34.79,34.79,0,0,1,1.35,7.15,23.22,23.22,0,0,1,0,3.44,17.84,17.84,0,0,1-.41,3.36,15.67,15.67,0,0,1-2.63,5.69c.6.74,1,1.13,1,1.13s-.4-.33-1-1c-.13.18-.22.32-.36.49-4.73-1.15-7.88-4.45-9.89-8.94a27.58,27.58,0,0,1-1.31-3.52,28.84,28.84,0,0,1-.74-3.83c-.19-1.33-.31-2.67-.38-4-.12-.33-.26-.64-.39-1a57,57,0,0,1-2.3-28.55A136.13,136.13,0,0,0,556.66,302C557.07,305.38,557.55,308.45,558,311Z"/><path class="cls-20" d="M591.56,365.89s.08-.5.24-1.33a25,25,0,0,1-1.44,2.32,19,19,0,0,1-8.23,6.75c-.91,1.86-1.42,3-1.42,3s.33-1,1-2.79a18,18,0,0,1-2.36.74,13.79,13.79,0,0,1-2.2-6.33,16.23,16.23,0,0,1,0-3.34,15.39,15.39,0,0,1,.7-3.35,35.26,35.26,0,0,1,7.45-12.18,59.61,59.61,0,0,1,9.63-8.07c.17-.12.34-.22.51-.32,2.23-2.35,4.33-4.34,5.88-5.87l2.93-2.86s-.84,1.41-2.35,3.5c-.65.88-1.42,1.86-2.3,2.92,0,.22-.08.61-.2,1.2-.1.77-.26,1.93-.47,3.25a166.39,166.39,0,0,1,11.81-13.83c0,.05-5.57,7.3-12.53,17.46-.55,2.39-1.28,5.09-2.08,7.92a2.54,2.54,0,0,0-.09.31c.31-.53.66-1.07,1-1.58,2.15-3.08,4.33-5.59,5.84-7.45l2.44-3.06a35.47,35.47,0,0,1-1.79,3.59c-1.19,2.16-3.09,5-5.2,8a82.54,82.54,0,0,0-5.08,7.9A35.87,35.87,0,0,0,591.56,365.89Z"/><path class="cls-21" d="M581.23,329.85a14.21,14.21,0,0,1,2-6.35,27.61,27.61,0,0,1,4.15-5.61c.4-.45.8-.85,1.24-1.28s.9-.77,1.35-1.14c.93-.73,1.88-1.42,2.86-2.1a49.21,49.21,0,0,1,5.66-3.31,28.55,28.55,0,0,1,2.71-1.18c.39-.16.71-.27,1.09-.39a32.23,32.23,0,0,1,2.88-2.42,43.85,43.85,0,0,1,10.57-5.87L606.8,307c1.22-.33,2-.49,2-.49s-.5,1.5-1.48,3.75a108.56,108.56,0,0,1,12.89-7.75c4.67-2.37,7.66-3.6,7.66-3.6s-2.83,1.64-7.32,4.43c-3.91,2.46-9.11,5.8-14.57,10-.32.75-.64,1.49-1,2.26-.76,1.7-1.79,3.47-2.81,5.31-.19.38-.42.73-.62,1.1,1.55-1.32,3.4-2.79,5.43-4.27l7.68-5.54,3.19-2.43a39.54,39.54,0,0,1-2.68,3.14,54.84,54.84,0,0,1-7.36,6.37c-3,2.14-5.79,4-7.83,5.28-.4.63-.81,1.26-1.26,1.85-.66.87-1.35,1.72-2.12,2.56a29.28,29.28,0,0,1-2.24,2.37,18.49,18.49,0,0,1-9.44,4.88c-.58,1.05-.89,1.66-.9,1.64s.23-.58.67-1.6a15.53,15.53,0,0,1-2.4.21A14,14,0,0,1,581.23,329.85Z"/><path class="cls-22" d="M592.89,293.46a17.83,17.83,0,0,1,3.27-5.69,24.42,24.42,0,0,1,5.29-4.26,33.64,33.64,0,0,1,3-1.65,27.09,27.09,0,0,1,3.19-1.26,42,42,0,0,1,11.62-2.19c1.26-.06,2.32-.06,3.17-.05.69-.26,1.37-.53,2.11-.76a49.91,49.91,0,0,1,13.87-2c0,.09-6.19,1.6-13.53,3.84-.47.15-.9.31-1.36.45-.37.55-.88,1.23-1.5,2a83.88,83.88,0,0,1,14.19-1.59c5-.18,8.11-.06,8.11-.07l-8.12,1a125.78,125.78,0,0,0-15.85,2.89c-.49.64-1,1.32-1.58,2s-1.22,1.42-1.86,2.13c-.25.26-.46.51-.66.75.51-.25,1-.49,1.52-.73a36.87,36.87,0,0,1,13.21-3.1S625.12,287,618.26,290c-1.88.82-3.67,1.64-5.25,2.38a35.06,35.06,0,0,1-2.68,2.34,25.3,25.3,0,0,1-5.15,3.57,18.1,18.1,0,0,1-11,2.19c-.45.57-.69.92-.71.9a7.15,7.15,0,0,0,.57-.93,13.51,13.51,0,0,1-1.52-.28,14.48,14.48,0,0,1-.29-3.5A12.46,12.46,0,0,1,592.89,293.46Z"/><path class="cls-23" d="M558.69,432c-.38-.6-.75-1.22-1.05-1.8-1-1.8-1.74-3.41-2.28-4.5s-.75-1.78-.75-1.78,1.37.48,3.66,1.23a69.41,69.41,0,0,1-5.81-5,34.77,34.77,0,0,1-3.58-4.05s1.52,1.36,4.13,3.27,6.28,4.44,10.33,7.24c.32.21.66.42,1,.64,2.65.91,5.57,2,8.52,3.13,4.54,1.8,9.08,3.84,12.62,6.6a17.11,17.11,0,0,1,6.8,11.4,16.68,16.68,0,0,1-1.84,1.17l.14,0h-.19a14.35,14.35,0,0,1-11.29,1c-4.53-1.35-9-4.51-12.69-8.37a53.79,53.79,0,0,1-4.39-5.25c-.38-.28-.77-.53-1.14-.81a69.25,69.25,0,0,1-16.43-17.36,37.41,37.41,0,0,1-4.44-9.28,42.24,42.24,0,0,0,5.1,8.69A82,82,0,0,0,558.69,432Z"/><path class="cls-24" d="M586.05,410.42c-.44.35-.94.72-1.42,1.05-3.84-2.57-5.42-7-5.18-11.58a20.14,20.14,0,0,1,.49-3.47A24.15,24.15,0,0,1,581,393c.47-1.1,1-2.14,1.54-3.16s1.27-2.14,1.95-3.17a67.12,67.12,0,0,1,5.1-6.67c.43-1,.91-2,1.42-3a82.73,82.73,0,0,1,8.33-13.1s-2.54,5.32-5.91,12c.82-.81,1.57-1.51,2.19-2s1.2-1,1.2-1,0,.51,0,1.42c0,.14,0,.32,0,.47a54,54,0,0,1,4.8-7,30.06,30.06,0,0,1,5.75-5.62,38.15,38.15,0,0,0-5.12,6.18,74.89,74.89,0,0,0-5.36,9.31,1.48,1.48,0,0,0,0,.37c0,1.59,0,3.43-.22,5.45-.09,1-.18,2.1-.31,3.11.43-1.17.89-2.38,1.44-3.66a57.79,57.79,0,0,1,6.71-11.72l-5.24,12.46c-1.6,3.75-3.12,7.09-4.17,9.34a54.47,54.47,0,0,1-2.3,7.66,23.59,23.59,0,0,1-6.53,9.41,16.85,16.85,0,0,0-.09,2.59A14.05,14.05,0,0,1,586.05,410.42Z"/><path class="cls-25" d="M614.33,258.82a12.94,12.94,0,0,1,2.49-2.06,24,24,0,0,1,6-2.75,31.31,31.31,0,0,1,6.64-1.09c1.09-.09,2.17-.1,3.21-.1s2.1.14,3.09.21c1.41.14,2.66.34,3.82.57a31.11,31.11,0,0,1,4.31-.34c3.57,0,6.71.24,9,.26s3.73-.08,3.74-.06a23.57,23.57,0,0,1-3.76,1,47.85,47.85,0,0,1-7.23.65l.47.13s-.34.32-1,.86l-1,.87a89.48,89.48,0,0,1,13.7-.8c5.16.11,8.32.52,8.33.5s-3.2.07-8.39.46a131.41,131.41,0,0,0-16.35,2.1l-.67.52c-.33.23-.65.49-1,.75s-.68.56-1,.83a45.84,45.84,0,0,1-4.73,3.21c-.57.38-1.2.76-1.8,1.11a.11.11,0,0,1,.06,0c2.42-.6,5.67-1.63,9.36-2.63a53.28,53.28,0,0,1,9.54-1.78,32,32,0,0,1,4-.08s-1.53.35-3.91,1L642,264.81a50.3,50.3,0,0,1-9.57,1.76c-.71,0-1.35,0-1.89,0-.59.32-1.15.61-1.76.88-.45.19-1,.4-1.42.58a14.44,14.44,0,0,1-1.44.58,23.44,23.44,0,0,1-2.92.87,18.75,18.75,0,0,1-6.2.32,15.21,15.21,0,0,1-4.07-1c-1.6.64-2.52,1-2.53,1l2.13-1.13c-.62-.28-1.25-.58-1.88-.93a15.06,15.06,0,0,1,.56-3.49,13.93,13.93,0,0,1,1.39-2.94A15.91,15.91,0,0,1,614.33,258.82Z"/><path class="cls-26" d="M688.77,240.88c-5.25.12-12.28-.58-20-1.37-.17.08-.31.17-.49.26-1.23.66-2.73,1.33-4.37,2.08a53.56,53.56,0,0,1-5.29,2.07,6.85,6.85,0,0,1-.69.22c1.06-.09,2.16-.22,3.32-.32a39.72,39.72,0,0,1,13.19,1s-5.92.24-13.2.89a82,82,0,0,1-10.48.12,22.94,22.94,0,0,1-4.06.22,16.83,16.83,0,0,1-9.44-3.11c-.08.09-.12.14-.13.13s0,0,.12-.13A16.35,16.35,0,0,1,635,241.1a13.84,13.84,0,0,1,3.28-5.79,15.4,15.4,0,0,1,5.33-3.32,25,25,0,0,1,13-.67,36.4,36.4,0,0,1,6.13,1.63c1.42.51,2.7,1,3.85,1.55l2,0a78.19,78.19,0,0,0,11.92-.49,21,21,0,0,1-3.44,1.26,30.15,30.15,0,0,1-6.7,1.06c1.29.71,2,1.19,2,1.19l-.7.4c6.66.82,12.62,1.71,17.17,2a27.5,27.5,0,0,0,9-.44C697.9,239.55,694.45,240.88,688.77,240.88Z"/><path class="cls-27" d="M688.74,209.15c-4,2.06-7.45,4.54-10.08,6.1a24.5,24.5,0,0,1-4.42,2.21,46,46,0,0,0,4-3,59.38,59.38,0,0,1,9.87-7,28.3,28.3,0,0,1,11.22-3.25,26.17,26.17,0,0,1,4.69,0A48.57,48.57,0,0,0,688.74,209.15Z"/><path class="cls-28" d="M570.74,447.85a24.48,24.48,0,0,1-4.8-1.3,38,38,0,0,1-10.63-5.86,44.37,44.37,0,0,1-8.65-8.92,32.34,32.34,0,0,1-2.78-4.49,78.22,78.22,0,0,0,12.44,11.85A67,67,0,0,0,570.74,447.85Z"/><path class="cls-29" d="M549.88,393.84l-.26-.92c-.29-1.22-.59-2.42-.83-3.6-.07-.27-.1-.54-.18-.81a122.94,122.94,0,0,1-9.78-29.72,185.42,185.42,0,0,0,8.71,23.3c-.2-1.5-.35-2.77-.44-3.67-.06-1.12-.07-1.74-.07-1.74l1.14.86a80,80,0,0,1-4.29-16.47s2.66,8,6.56,17.42c.16.43.32.81.5,1.21l.7.54a97.41,97.41,0,0,1,9.58,8.76c.81.88,1.62,1.78,2.42,2.7s1.61,2.08,2.36,3.09,1.56,2,2.24,3,1.37,2,2,3.05a20.59,20.59,0,0,1,3.1,13.48c-.3.1-.6.17-.92.27l.3.08a2.47,2.47,0,0,1-.38-.07c-4.36,1.23-8.47.13-12.13-2.79a27.2,27.2,0,0,1-6.76-8.69,57.63,57.63,0,0,1-6.72-9.67A78.7,78.7,0,0,1,540,376c.07,0,3.41,7.61,8.16,16.37.92,1.71,1.87,3.29,2.76,4.79-.23-.72-.45-1.45-.67-2.18Z"/><path class="cls-30" d="M550.09,334.06c.07-.66.14-1,.14-1l3.85,4.51c.47.58,1,1.21,1.47,1.86l-.17-.67A89.7,89.7,0,0,1,553.45,328c-.3-2.83-.3-4.59-.31-4.59l1.12,4.33C555,330.4,556,334,557,338.11c.35,1.5.64,2.93.88,4.31,1.34,1.81,2.73,3.77,4.07,5.79,2.73,4.12,5.31,8.57,6.45,13a34.06,34.06,0,0,1,.73,3.35,18.33,18.33,0,0,1,.17,3.38,16.82,16.82,0,0,1-1.9,6.81,18.07,18.07,0,0,1-2-.22l.62,1.33s-.29-.46-.79-1.39a14.57,14.57,0,0,1-9.24-6.33,24.67,24.67,0,0,1-1.9-3.12,22.62,22.62,0,0,1-1.55-3.48q-.65-1.92-1.17-3.93c-1.2-2.79-2.61-6.24-3.86-10.14a75.72,75.72,0,0,1-3.5-18.4s1.95,8.1,5.07,17.68c.28.86.56,1.72.84,2.56a77.14,77.14,0,0,1-.25-9.5,82.51,82.51,0,0,1-2.65-22.06,88.68,88.68,0,0,1,.9-11s-.34,4.22,0,10.91A91.59,91.59,0,0,0,550.09,334.06Z"/><path class="cls-31" d="M646.63,205.38a41.51,41.51,0,0,1,8.47-8.45l-7.2,9.57a59.49,59.49,0,0,0-4.56,7c-1,1.89-1.51,3.2-1.52,3.19a17.54,17.54,0,0,1,.78-3.55A27.68,27.68,0,0,1,646.63,205.38Z"/><path class="cls-32" d="M708.91,561.85c.78,1.63,1.51,3.29,2.2,4.95a32,32,0,0,1-3,1.54c-.56-1-1.15-2-1.78-3.08-8.35-14.15-22.14-34.36-45.81-58-6.54-8.43-38.83-34.25-41.63-36.92-12.27-11.57-24.42-24.34-32.76-39.61-9-16.55-12.88-35.4-13.44-54.79-.72-24.11,1.11-48.41,9.81-71.28a169.52,169.52,0,0,1,33.07-53.47,204.52,204.52,0,0,1,38.75-33.62,15,15,0,0,1,1.71-5.63,17,17,0,0,1,4.35-5.24c3.52-2.93,8.2-4.64,12.71-5.59.54-.1,1-.14,1.56-.21,2-.86,4.11-1.72,6.37-2.62a67.52,67.52,0,0,0,11.4-5.48,33.43,33.43,0,0,0,4.32-3.25,25.58,25.58,0,0,1-3.88,4A41.72,41.72,0,0,1,681.52,200c-.29.1-.58.22-.86.33a37.52,37.52,0,0,1,4.51.14A34.84,34.84,0,0,1,689,201c.43.12.79.18,1,.24l.33.11-.23.26-.1.1c13.68-6.14,24.66-10.07,24.67-10.1s-11.63,6.12-26.18,12.76l-2,.88c-2.32,2.3-5.47,5.32-8.89,8.1a56.32,56.32,0,0,1-5.42,3.87,30.49,30.49,0,0,1-2.86,1.55,21.59,21.59,0,0,1-2.9,1.2,17,17,0,0,1-6,.81,15.51,15.51,0,0,1-4.46-1.11,209.38,209.38,0,0,0-17.63,13.23c-21.86,18.13-41,41.24-52,68.61-9.43,23.48-12,48.17-11.26,73.14.38,13.19,1.93,26.49,6.16,38.76S592.8,436,599.91,446.32C618.47,473.41,684.27,509.9,708.91,561.85Z"/></svg>